<?xml version="1.0" encoding="iso-8859-1"?><!DOCTYPE svg PUBLIC "-//W3C//DTD SVG 1.1//EN" "http://www.w3.org/Graphics/SVG/1.1/DTD/svg11.dtd"> <svg version="1.1" id="Capa_1" xmlns="http://www.w3.org/2000/svg" xmlns:xlink="http://www.w3.org/1999/xlink" x="0px" y="0px" viewBox="0 0 462.647 462.647" style="enable-background:new 0 0 462.647 462.647;" xml:space="preserve"> <g> <path style="fill: #26a69a;" d="M72.767,102.338V65.62c0-8.284-6.716-15-15-15s-15,6.716-15,15v36.718c-18.298,2.566-32.428,18.314-32.428,37.31v201.445 c0,18.995,14.129,34.743,32.428,37.31v36.718c0,8.284,6.716,15,15,15s15-6.716,15-15v-36.718 c18.298-2.566,32.428-18.314,32.428-37.31V139.647C105.195,120.652,91.065,104.904,72.767,102.338z M75.195,341.093 c0,4.236-3.447,7.684-7.684,7.684H48.023c-4.236,0-7.684-3.447-7.684-7.684V139.647c0-4.236,3.447-7.684,7.684-7.684h19.488 c4.236,0,7.684,3.447,7.684,7.684V341.093z"/> <path style="fill: #ef5350;" d="M304.175,77.785V41.067c0-8.284-6.716-15-15-15s-15,6.716-15,15v36.718c-18.299,2.566-32.428,18.315-32.428,37.31v142.487 c0,18.994,14.129,34.743,32.428,37.31v152.756c0,8.284,6.716,15,15,15s15-6.716,15-15V294.892 c18.299-2.566,32.429-18.315,32.429-37.31V115.095C336.604,96.101,322.474,80.352,304.175,77.785z M306.604,257.582 c0,4.236-3.447,7.684-7.684,7.684h-19.489c-4.236,0-7.684-3.447-7.684-7.684V115.095c0-4.236,3.447-7.684,7.684-7.684h19.489 c4.236,0,7.684,3.447,7.684,7.684V257.582z"/> <path style="fill: #ef5350;" d="M188.471,51.718V15c0-8.284-6.716-15-15-15s-15,6.716-15,15v36.718c-18.298,2.566-32.428,18.315-32.428,37.31V249.62 c0,18.995,14.129,34.743,32.428,37.31v36.718c0,8.284,6.716,15,15,15s15-6.716,15-15V286.93 c18.298-2.566,32.428-18.314,32.428-37.31V89.027C220.899,70.033,206.77,54.284,188.471,51.718z M190.899,249.62 c0,4.236-3.447,7.684-7.684,7.684h-19.488c-4.236,0-7.684-3.447-7.684-7.684V89.027c0-4.236,3.447-7.684,7.684-7.684h19.488 c4.236,0,7.684,3.447,7.684,7.684V249.62z"/> <path style="fill: #26a69a;" d="M419.879,148.185V35.479c0-8.284-6.716-15-15-15s-15,6.716-15,15v112.705c-18.298,2.566-32.428,18.315-32.428,37.31 v160.593c0,18.995,14.129,34.743,32.428,37.31v36.718c0,8.284,6.716,15,15,15s15-6.716,15-15v-36.718 c18.299-2.565,32.429-18.314,32.429-37.31V185.494C452.308,166.5,438.179,150.75,419.879,148.185z M422.308,346.087 c0,4.236-3.447,7.684-7.684,7.684h-19.489c-4.236,0-7.684-3.447-7.684-7.684V185.494c0-4.236,3.447-7.684,7.684-7.684h19.489 c4.236,0,7.684,3.447,7.684,7.684V346.087z"/> </g> <g> </g> <g> </g> <g> </g> <g> </g> <g> </g> <g> </g> <g> </g> <g> </g> <g> </g> <g> </g> <g> </g> <g> </g> <g> </g> <g> </g> <g> </g> </svg>